<svg width="104" height="35" viewBox="0 0 104 35" fill="none" xmlns="http://www.w3.org/2000/svg">
<path d="M3.752 26.5C3.22933 26.5 2.76267 26.304 2.352 25.912C1.94133 25.52 1.736 25.044 1.736 24.484V8.916C1.736 8.37467 1.94133 7.908 2.352 7.516C2.76267 7.10533 3.22933 6.9 3.752 6.9H10.108C10.6867 6.9 11.1627 7.10533 11.536 7.516C11.928 7.908 12.124 8.37467 12.124 8.916V12.556L9.52 13.144V10.512C9.52 10.2507 9.42667 10.0173 9.24 9.812C9.072 9.60667 8.83867 9.504 8.54 9.504H5.348C5.08667 9.504 4.85333 9.60667 4.648 9.812C4.44267 10.0173 4.34 10.2507 4.34 10.512V22.888C4.34 23.1867 4.44267 23.4293 4.648 23.616C4.85333 23.8027 5.08667 23.896 5.348 23.896H8.54C8.83867 23.896 9.072 23.8027 9.24 23.616C9.42667 23.4293 9.52 23.1867 9.52 22.888V20.844L12.124 20.228V24.484C12.124 25.044 11.928 25.52 11.536 25.912C11.1627 26.304 10.6867 26.5 10.108 26.5H3.752ZM14.4782 26.5V6.9H17.0822V14.348H22.2902V6.9H24.8662V26.5H22.2902V16.952H17.0822V26.5H14.4782ZM27.1644 26.5V6.9H35.5644C36.1057 6.9 36.5724 7.096 36.9644 7.488C37.3564 7.88 37.5524 8.356 37.5524 8.916V14.936C37.5524 15.496 37.3564 15.972 36.9644 16.364C36.5724 16.756 36.1057 16.952 35.5644 16.952H34.9764L37.5524 26.5H34.9764L32.3724 16.952H29.7684V26.5H27.1644ZM29.7684 14.348H33.9684C34.2297 14.348 34.463 14.2547 34.6684 14.068C34.8737 13.8627 34.9764 13.62 34.9764 13.34V10.512C34.9764 10.232 34.8737 9.99867 34.6684 9.812C34.463 9.60667 34.2297 9.504 33.9684 9.504H29.7684V14.348Z" fill="#040303"/>
<rect x="41.5" y="8" width="33" height="19" rx="9.5" fill="#F0EBE4" stroke="#BD002A" stroke-width="3"/>
<path d="M77.736 26.5V6.9H80.34L84.232 18.856L88.124 6.9H90.728V26.5H88.124V14.852L85.52 22.832H82.944L80.34 14.852V26.5H77.736ZM92.2293 26.528L96.1773 6.928H98.7253L102.617 26.528H100.013L99.2573 22.86H95.5333L94.8333 26.528H92.2293ZM96.0373 20.284H98.8093L97.4653 13.312L96.0373 20.284Z" fill="#BD002A"/>
</svg>
