<svg width="11" height="11" viewBox="0 0 11 11" fill="none" xmlns="http://www.w3.org/2000/svg">
<path d="M1 4.85C0.641015 4.85 0.35 5.14101 0.35 5.5C0.35 5.85899 0.641015 6.15 1 6.15V4.85ZM10.4596 5.95962C10.7135 5.70578 10.7135 5.29422 10.4596 5.04038L6.32304 0.903806C6.0692 0.649965 5.65765 0.649965 5.40381 0.903806C5.14997 1.15765 5.14997 1.5692 5.40381 1.82304L9.08076 5.5L5.40381 9.17696C5.14997 9.4308 5.14997 9.84235 5.40381 10.0962C5.65765 10.35 6.0692 10.35 6.32304 10.0962L10.4596 5.95962ZM1 6.15H10V4.85H1V6.15Z" fill="#BD002A"/>
</svg>
